<mxfile host="Electron" modified="2024-01-08T13:43:30.920Z" agent="Mozilla/5.0 (Windows NT 10.0; Win64; x64) AppleWebKit/537.36 (KHTML, like Gecko) draw.io/22.1.16 Chrome/120.0.6099.109 Electron/28.1.0 Safari/537.36" etag="EZMErdcG36AxfeVlIX_m" version="22.1.16" type="device">
  <diagram name="ページ1" id="LE8fIzdrHe0wcv1LTvfw">
    <mxGraphModel dx="1544" dy="913" grid="1" gridSize="10" guides="1" tooltips="1" connect="1" arrows="1" fold="1" page="1" pageScale="1" pageWidth="1600" pageHeight="1200" math="0" shadow="0">
      <root>
        <mxCell id="0" />
        <mxCell id="cFaB45KztUIKXS-_cTrr-4" value="背景" style="locked=1;" parent="0" visible="0" />
        <mxCell id="cFaB45KztUIKXS-_cTrr-5" value="" style="rounded=0;whiteSpace=wrap;html=1;strokeWidth=3;" parent="cFaB45KztUIKXS-_cTrr-4" vertex="1">
          <mxGeometry x="1" y="1" width="1595" height="1180" as="geometry" />
        </mxCell>
        <mxCell id="cFaB45KztUIKXS-_cTrr-6" value="" style="rounded=0;whiteSpace=wrap;html=1;fillColor=#B3B3B3;fontColor=#333333;strokeColor=#666666;" parent="cFaB45KztUIKXS-_cTrr-4" vertex="1">
          <mxGeometry width="1595" height="60" as="geometry" />
        </mxCell>
        <mxCell id="cFaB45KztUIKXS-_cTrr-7" value="&lt;font style=&quot;font-size: 48px;&quot;&gt;×&lt;/font&gt;" style="rounded=0;whiteSpace=wrap;html=1;" parent="cFaB45KztUIKXS-_cTrr-4" vertex="1">
          <mxGeometry x="1550" y="10" width="40" height="40" as="geometry" />
        </mxCell>
        <mxCell id="cFaB45KztUIKXS-_cTrr-8" value="" style="rounded=0;whiteSpace=wrap;html=1;" parent="cFaB45KztUIKXS-_cTrr-4" vertex="1">
          <mxGeometry x="830" y="670" width="120" height="60" as="geometry" />
        </mxCell>
        <mxCell id="cFaB45KztUIKXS-_cTrr-9" value="ウインドウ" style="locked=1;" parent="0" />
        <mxCell id="cFaB45KztUIKXS-_cTrr-10" value="" style="rounded=0;whiteSpace=wrap;html=1;strokeWidth=3;" parent="cFaB45KztUIKXS-_cTrr-9" vertex="1">
          <mxGeometry x="1" y="1" width="1595" height="2049" as="geometry" />
        </mxCell>
        <mxCell id="cFaB45KztUIKXS-_cTrr-11" value="" style="rounded=0;whiteSpace=wrap;html=1;fillColor=#B3B3B3;fontColor=#333333;strokeColor=#666666;" parent="cFaB45KztUIKXS-_cTrr-9" vertex="1">
          <mxGeometry width="1595" height="60" as="geometry" />
        </mxCell>
        <mxCell id="cFaB45KztUIKXS-_cTrr-12" value="&lt;font style=&quot;font-size: 48px;&quot;&gt;×&lt;/font&gt;" style="rounded=0;whiteSpace=wrap;html=1;" parent="cFaB45KztUIKXS-_cTrr-9" vertex="1">
          <mxGeometry x="1550" y="10" width="40" height="40" as="geometry" />
        </mxCell>
        <mxCell id="cFaB45KztUIKXS-_cTrr-14" value="名称未設定レイヤ" style="" parent="0" />
        <mxCell id="qQW_u_u5-3ppLx-0F7_--9" value="&lt;span style=&quot;font-size: 30px;&quot;&gt;保存&lt;/span&gt;" style="rounded=1;whiteSpace=wrap;html=1;" parent="cFaB45KztUIKXS-_cTrr-14" vertex="1">
          <mxGeometry x="1340" y="1930" width="210" height="60" as="geometry" />
        </mxCell>
        <mxCell id="-aRjbIlAvJyihVMSlcDC-31" style="edgeStyle=orthogonalEdgeStyle;rounded=0;orthogonalLoop=1;jettySize=auto;html=1;exitX=0.5;exitY=0;exitDx=0;exitDy=0;entryX=0.5;entryY=1;entryDx=0;entryDy=0;" parent="cFaB45KztUIKXS-_cTrr-14" source="lHecheWsHZr5f5_axR1w-39" target="lHecheWsHZr5f5_axR1w-35" edge="1">
          <mxGeometry relative="1" as="geometry" />
        </mxCell>
        <mxCell id="GAbksBgTEfNfYpB4TjCx-3" value="&lt;font style=&quot;font-size: 30px;&quot;&gt;※日付行動解析は調査対象と調査側双方に負担がかかるので1年間で&lt;/font&gt;" style="rounded=0;whiteSpace=wrap;html=1;align=left;" parent="cFaB45KztUIKXS-_cTrr-14" vertex="1">
          <mxGeometry x="30" y="290" width="920" height="50" as="geometry" />
        </mxCell>
        <mxCell id="GAbksBgTEfNfYpB4TjCx-4" value="&lt;span style=&quot;font-size: 30px;&quot;&gt;30&lt;/span&gt;" style="rounded=0;whiteSpace=wrap;html=1;align=right;fillColor=#CCCCCC;" parent="cFaB45KztUIKXS-_cTrr-14" vertex="1">
          <mxGeometry x="959" y="292" width="50" height="48" as="geometry" />
        </mxCell>
        <mxCell id="GAbksBgTEfNfYpB4TjCx-5" value="&lt;font style=&quot;font-size: 30px;&quot;&gt;日に制限しています。&lt;/font&gt;" style="rounded=0;whiteSpace=wrap;html=1;align=left;" parent="cFaB45KztUIKXS-_cTrr-14" vertex="1">
          <mxGeometry x="1018" y="291" width="302" height="50" as="geometry" />
        </mxCell>
        <mxCell id="GAbksBgTEfNfYpB4TjCx-6" value="&lt;span style=&quot;font-size: 30px;&quot;&gt;キャンセル&lt;/span&gt;" style="rounded=1;whiteSpace=wrap;html=1;" parent="cFaB45KztUIKXS-_cTrr-14" vertex="1">
          <mxGeometry x="1110" y="1930" width="210" height="60" as="geometry" />
        </mxCell>
        <mxCell id="lHecheWsHZr5f5_axR1w-0" value="&lt;span style=&quot;font-size: 30px;&quot;&gt;&lt;font color=&quot;#ff0000&quot;&gt;6&lt;/font&gt;&lt;/span&gt;" style="rounded=0;whiteSpace=wrap;html=1;align=right;fillColor=#CCCCCC;" parent="cFaB45KztUIKXS-_cTrr-14" vertex="1">
          <mxGeometry x="1328" y="290" width="50" height="48" as="geometry" />
        </mxCell>
        <mxCell id="lHecheWsHZr5f5_axR1w-1" value="&lt;span style=&quot;font-size: 30px;&quot;&gt;30&lt;/span&gt;" style="rounded=0;whiteSpace=wrap;html=1;align=right;fillColor=#CCCCCC;" parent="cFaB45KztUIKXS-_cTrr-14" vertex="1">
          <mxGeometry x="1433" y="290" width="50" height="48" as="geometry" />
        </mxCell>
        <mxCell id="lHecheWsHZr5f5_axR1w-2" value="&lt;font style=&quot;font-size: 30px;&quot;&gt;／&lt;/font&gt;" style="rounded=0;whiteSpace=wrap;html=1;align=center;" parent="cFaB45KztUIKXS-_cTrr-14" vertex="1">
          <mxGeometry x="1380" y="290" width="52" height="50" as="geometry" />
        </mxCell>
        <mxCell id="lHecheWsHZr5f5_axR1w-30" value="" style="childLayout=tableLayout;recursiveResize=0;shadow=0;fillColor=none;" parent="cFaB45KztUIKXS-_cTrr-14" vertex="1">
          <mxGeometry x="22" y="1123" width="1558" height="540" as="geometry" />
        </mxCell>
        <mxCell id="-aRjbIlAvJyihVMSlcDC-18" style="shape=tableRow;horizontal=0;startSize=0;swimlaneHead=0;swimlaneBody=0;top=0;left=0;bottom=0;right=0;dropTarget=0;collapsible=0;recursiveResize=0;expand=0;fontStyle=0;fillColor=none;strokeColor=inherit;" parent="lHecheWsHZr5f5_axR1w-30" vertex="1">
          <mxGeometry width="1558" height="60" as="geometry" />
        </mxCell>
        <mxCell id="-aRjbIlAvJyihVMSlcDC-19" value="&lt;font style=&quot;font-size: 30px;&quot;&gt;開始時間&lt;/font&gt;" style="connectable=0;recursiveResize=0;strokeColor=inherit;fillColor=none;align=center;whiteSpace=wrap;html=1;" parent="-aRjbIlAvJyihVMSlcDC-18" vertex="1">
          <mxGeometry width="130" height="60" as="geometry">
            <mxRectangle width="130" height="60" as="alternateBounds" />
          </mxGeometry>
        </mxCell>
        <mxCell id="-aRjbIlAvJyihVMSlcDC-20" value="&lt;font style=&quot;font-size: 30px;&quot;&gt;終了時間&lt;/font&gt;" style="connectable=0;recursiveResize=0;strokeColor=inherit;fillColor=none;align=center;whiteSpace=wrap;html=1;" parent="-aRjbIlAvJyihVMSlcDC-18" vertex="1">
          <mxGeometry x="130" width="130" height="60" as="geometry">
            <mxRectangle width="130" height="60" as="alternateBounds" />
          </mxGeometry>
        </mxCell>
        <mxCell id="-aRjbIlAvJyihVMSlcDC-21" value="&lt;font style=&quot;font-size: 30px;&quot;&gt;イベント&lt;/font&gt;" style="connectable=0;recursiveResize=0;strokeColor=inherit;fillColor=none;align=left;whiteSpace=wrap;html=1;" parent="-aRjbIlAvJyihVMSlcDC-18" vertex="1">
          <mxGeometry x="260" width="288" height="60" as="geometry">
            <mxRectangle width="288" height="60" as="alternateBounds" />
          </mxGeometry>
        </mxCell>
        <mxCell id="-aRjbIlAvJyihVMSlcDC-22" value="&lt;font style=&quot;font-size: 30px;&quot;&gt;支出&lt;/font&gt;" style="connectable=0;recursiveResize=0;strokeColor=inherit;fillColor=none;align=left;whiteSpace=wrap;html=1;" parent="-aRjbIlAvJyihVMSlcDC-18" vertex="1">
          <mxGeometry x="548" width="350" height="60" as="geometry">
            <mxRectangle width="350" height="60" as="alternateBounds" />
          </mxGeometry>
        </mxCell>
        <mxCell id="-aRjbIlAvJyihVMSlcDC-23" value="&lt;font style=&quot;font-size: 30px;&quot;&gt;収入&lt;/font&gt;" style="connectable=0;recursiveResize=0;strokeColor=inherit;fillColor=none;align=left;whiteSpace=wrap;html=1;" parent="-aRjbIlAvJyihVMSlcDC-18" vertex="1">
          <mxGeometry x="898" width="352" height="60" as="geometry">
            <mxRectangle width="352" height="60" as="alternateBounds" />
          </mxGeometry>
        </mxCell>
        <mxCell id="-aRjbIlAvJyihVMSlcDC-42" style="connectable=0;recursiveResize=0;strokeColor=inherit;fillColor=none;align=left;whiteSpace=wrap;html=1;" parent="-aRjbIlAvJyihVMSlcDC-18" vertex="1">
          <mxGeometry x="1250" width="170" height="60" as="geometry">
            <mxRectangle width="170" height="60" as="alternateBounds" />
          </mxGeometry>
        </mxCell>
        <mxCell id="fEjhOvrRUlLvb5Ld7npS-1" style="connectable=0;recursiveResize=0;strokeColor=inherit;fillColor=none;align=left;whiteSpace=wrap;html=1;" vertex="1" parent="-aRjbIlAvJyihVMSlcDC-18">
          <mxGeometry x="1420" width="138" height="60" as="geometry">
            <mxRectangle width="138" height="60" as="alternateBounds" />
          </mxGeometry>
        </mxCell>
        <mxCell id="lHecheWsHZr5f5_axR1w-31" value="" style="shape=tableRow;horizontal=0;startSize=0;swimlaneHead=0;swimlaneBody=0;top=0;left=0;bottom=0;right=0;dropTarget=0;collapsible=0;recursiveResize=0;expand=0;fontStyle=0;fillColor=none;strokeColor=inherit;" parent="lHecheWsHZr5f5_axR1w-30" vertex="1">
          <mxGeometry y="60" width="1558" height="60" as="geometry" />
        </mxCell>
        <mxCell id="lHecheWsHZr5f5_axR1w-32" value="&lt;font style=&quot;font-size: 30px;&quot;&gt;09:00&lt;/font&gt;" style="connectable=0;recursiveResize=0;strokeColor=inherit;fillColor=none;align=center;whiteSpace=wrap;html=1;" parent="lHecheWsHZr5f5_axR1w-31" vertex="1">
          <mxGeometry width="130" height="60" as="geometry">
            <mxRectangle width="130" height="60" as="alternateBounds" />
          </mxGeometry>
        </mxCell>
        <mxCell id="lHecheWsHZr5f5_axR1w-33" value="&lt;font style=&quot;font-size: 30px;&quot;&gt;10:00&lt;/font&gt;" style="connectable=0;recursiveResize=0;strokeColor=inherit;fillColor=none;align=center;whiteSpace=wrap;html=1;" parent="lHecheWsHZr5f5_axR1w-31" vertex="1">
          <mxGeometry x="130" width="130" height="60" as="geometry">
            <mxRectangle width="130" height="60" as="alternateBounds" />
          </mxGeometry>
        </mxCell>
        <mxCell id="lHecheWsHZr5f5_axR1w-34" value="&lt;font style=&quot;font-size: 30px;&quot;&gt;移動&lt;/font&gt;" style="connectable=0;recursiveResize=0;strokeColor=inherit;fillColor=none;align=left;whiteSpace=wrap;html=1;" parent="lHecheWsHZr5f5_axR1w-31" vertex="1">
          <mxGeometry x="260" width="288" height="60" as="geometry">
            <mxRectangle width="288" height="60" as="alternateBounds" />
          </mxGeometry>
        </mxCell>
        <mxCell id="-aRjbIlAvJyihVMSlcDC-12" style="connectable=0;recursiveResize=0;strokeColor=inherit;fillColor=none;align=left;whiteSpace=wrap;html=1;" parent="lHecheWsHZr5f5_axR1w-31" vertex="1">
          <mxGeometry x="548" width="350" height="60" as="geometry">
            <mxRectangle width="350" height="60" as="alternateBounds" />
          </mxGeometry>
        </mxCell>
        <mxCell id="-aRjbIlAvJyihVMSlcDC-24" style="connectable=0;recursiveResize=0;strokeColor=inherit;fillColor=none;align=left;whiteSpace=wrap;html=1;" parent="lHecheWsHZr5f5_axR1w-31" vertex="1">
          <mxGeometry x="898" width="352" height="60" as="geometry">
            <mxRectangle width="352" height="60" as="alternateBounds" />
          </mxGeometry>
        </mxCell>
        <mxCell id="-aRjbIlAvJyihVMSlcDC-43" style="connectable=0;recursiveResize=0;strokeColor=inherit;fillColor=none;align=left;whiteSpace=wrap;html=1;" parent="lHecheWsHZr5f5_axR1w-31" vertex="1">
          <mxGeometry x="1250" width="170" height="60" as="geometry">
            <mxRectangle width="170" height="60" as="alternateBounds" />
          </mxGeometry>
        </mxCell>
        <mxCell id="fEjhOvrRUlLvb5Ld7npS-2" style="connectable=0;recursiveResize=0;strokeColor=inherit;fillColor=none;align=left;whiteSpace=wrap;html=1;" vertex="1" parent="lHecheWsHZr5f5_axR1w-31">
          <mxGeometry x="1420" width="138" height="60" as="geometry">
            <mxRectangle width="138" height="60" as="alternateBounds" />
          </mxGeometry>
        </mxCell>
        <mxCell id="lHecheWsHZr5f5_axR1w-35" style="shape=tableRow;horizontal=0;startSize=0;swimlaneHead=0;swimlaneBody=0;top=0;left=0;bottom=0;right=0;dropTarget=0;collapsible=0;recursiveResize=0;expand=0;fontStyle=0;fillColor=none;strokeColor=inherit;" parent="lHecheWsHZr5f5_axR1w-30" vertex="1">
          <mxGeometry y="120" width="1558" height="60" as="geometry" />
        </mxCell>
        <mxCell id="lHecheWsHZr5f5_axR1w-36" value="&lt;font style=&quot;font-size: 30px;&quot;&gt;10:15&lt;/font&gt;" style="connectable=0;recursiveResize=0;strokeColor=inherit;fillColor=none;align=center;whiteSpace=wrap;html=1;" parent="lHecheWsHZr5f5_axR1w-35" vertex="1">
          <mxGeometry width="130" height="60" as="geometry">
            <mxRectangle width="130" height="60" as="alternateBounds" />
          </mxGeometry>
        </mxCell>
        <mxCell id="lHecheWsHZr5f5_axR1w-37" value="&lt;font style=&quot;font-size: 30px;&quot;&gt;12:45&lt;/font&gt;" style="connectable=0;recursiveResize=0;strokeColor=inherit;fillColor=none;align=center;whiteSpace=wrap;html=1;" parent="lHecheWsHZr5f5_axR1w-35" vertex="1">
          <mxGeometry x="130" width="130" height="60" as="geometry">
            <mxRectangle width="130" height="60" as="alternateBounds" />
          </mxGeometry>
        </mxCell>
        <mxCell id="lHecheWsHZr5f5_axR1w-38" value="&lt;font style=&quot;font-size: 30px;&quot;&gt;xx市場視察(1)&lt;/font&gt;" style="connectable=0;recursiveResize=0;strokeColor=inherit;fillColor=none;align=left;whiteSpace=wrap;html=1;" parent="lHecheWsHZr5f5_axR1w-35" vertex="1">
          <mxGeometry x="260" width="288" height="60" as="geometry">
            <mxRectangle width="288" height="60" as="alternateBounds" />
          </mxGeometry>
        </mxCell>
        <mxCell id="-aRjbIlAvJyihVMSlcDC-13" style="connectable=0;recursiveResize=0;strokeColor=inherit;fillColor=none;align=left;whiteSpace=wrap;html=1;" parent="lHecheWsHZr5f5_axR1w-35" vertex="1">
          <mxGeometry x="548" width="350" height="60" as="geometry">
            <mxRectangle width="350" height="60" as="alternateBounds" />
          </mxGeometry>
        </mxCell>
        <mxCell id="-aRjbIlAvJyihVMSlcDC-25" style="connectable=0;recursiveResize=0;strokeColor=inherit;fillColor=none;align=left;whiteSpace=wrap;html=1;" parent="lHecheWsHZr5f5_axR1w-35" vertex="1">
          <mxGeometry x="898" width="352" height="60" as="geometry">
            <mxRectangle width="352" height="60" as="alternateBounds" />
          </mxGeometry>
        </mxCell>
        <mxCell id="-aRjbIlAvJyihVMSlcDC-44" style="connectable=0;recursiveResize=0;strokeColor=inherit;fillColor=none;align=left;whiteSpace=wrap;html=1;" parent="lHecheWsHZr5f5_axR1w-35" vertex="1">
          <mxGeometry x="1250" width="170" height="60" as="geometry">
            <mxRectangle width="170" height="60" as="alternateBounds" />
          </mxGeometry>
        </mxCell>
        <mxCell id="fEjhOvrRUlLvb5Ld7npS-3" style="connectable=0;recursiveResize=0;strokeColor=inherit;fillColor=none;align=left;whiteSpace=wrap;html=1;" vertex="1" parent="lHecheWsHZr5f5_axR1w-35">
          <mxGeometry x="1420" width="138" height="60" as="geometry">
            <mxRectangle width="138" height="60" as="alternateBounds" />
          </mxGeometry>
        </mxCell>
        <mxCell id="lHecheWsHZr5f5_axR1w-39" style="shape=tableRow;horizontal=0;startSize=0;swimlaneHead=0;swimlaneBody=0;top=0;left=0;bottom=0;right=0;dropTarget=0;collapsible=0;recursiveResize=0;expand=0;fontStyle=0;fillColor=none;strokeColor=inherit;" parent="lHecheWsHZr5f5_axR1w-30" vertex="1">
          <mxGeometry y="180" width="1558" height="60" as="geometry" />
        </mxCell>
        <mxCell id="lHecheWsHZr5f5_axR1w-40" value="&lt;font style=&quot;font-size: 30px;&quot;&gt;13:00&lt;/font&gt;" style="connectable=0;recursiveResize=0;strokeColor=inherit;fillColor=none;align=center;whiteSpace=wrap;html=1;" parent="lHecheWsHZr5f5_axR1w-39" vertex="1">
          <mxGeometry width="130" height="60" as="geometry">
            <mxRectangle width="130" height="60" as="alternateBounds" />
          </mxGeometry>
        </mxCell>
        <mxCell id="lHecheWsHZr5f5_axR1w-41" value="&lt;font style=&quot;font-size: 30px;&quot;&gt;15:00&lt;/font&gt;" style="connectable=0;recursiveResize=0;strokeColor=inherit;fillColor=none;align=center;whiteSpace=wrap;html=1;" parent="lHecheWsHZr5f5_axR1w-39" vertex="1">
          <mxGeometry x="130" width="130" height="60" as="geometry">
            <mxRectangle width="130" height="60" as="alternateBounds" />
          </mxGeometry>
        </mxCell>
        <mxCell id="lHecheWsHZr5f5_axR1w-42" value="&lt;font style=&quot;font-size: 30px;&quot;&gt;xx地区祭り参加&lt;/font&gt;" style="connectable=0;recursiveResize=0;strokeColor=inherit;fillColor=none;align=left;whiteSpace=wrap;html=1;" parent="lHecheWsHZr5f5_axR1w-39" vertex="1">
          <mxGeometry x="260" width="288" height="60" as="geometry">
            <mxRectangle width="288" height="60" as="alternateBounds" />
          </mxGeometry>
        </mxCell>
        <mxCell id="-aRjbIlAvJyihVMSlcDC-14" style="connectable=0;recursiveResize=0;strokeColor=inherit;fillColor=none;align=left;whiteSpace=wrap;html=1;" parent="lHecheWsHZr5f5_axR1w-39" vertex="1">
          <mxGeometry x="548" width="350" height="60" as="geometry">
            <mxRectangle width="350" height="60" as="alternateBounds" />
          </mxGeometry>
        </mxCell>
        <mxCell id="-aRjbIlAvJyihVMSlcDC-26" style="connectable=0;recursiveResize=0;strokeColor=inherit;fillColor=none;align=left;whiteSpace=wrap;html=1;" parent="lHecheWsHZr5f5_axR1w-39" vertex="1">
          <mxGeometry x="898" width="352" height="60" as="geometry">
            <mxRectangle width="352" height="60" as="alternateBounds" />
          </mxGeometry>
        </mxCell>
        <mxCell id="-aRjbIlAvJyihVMSlcDC-45" style="connectable=0;recursiveResize=0;strokeColor=inherit;fillColor=none;align=left;whiteSpace=wrap;html=1;" parent="lHecheWsHZr5f5_axR1w-39" vertex="1">
          <mxGeometry x="1250" width="170" height="60" as="geometry">
            <mxRectangle width="170" height="60" as="alternateBounds" />
          </mxGeometry>
        </mxCell>
        <mxCell id="fEjhOvrRUlLvb5Ld7npS-4" style="connectable=0;recursiveResize=0;strokeColor=inherit;fillColor=none;align=left;whiteSpace=wrap;html=1;" vertex="1" parent="lHecheWsHZr5f5_axR1w-39">
          <mxGeometry x="1420" width="138" height="60" as="geometry">
            <mxRectangle width="138" height="60" as="alternateBounds" />
          </mxGeometry>
        </mxCell>
        <mxCell id="-aRjbIlAvJyihVMSlcDC-8" style="shape=tableRow;horizontal=0;startSize=0;swimlaneHead=0;swimlaneBody=0;top=0;left=0;bottom=0;right=0;dropTarget=0;collapsible=0;recursiveResize=0;expand=0;fontStyle=0;fillColor=none;strokeColor=inherit;" parent="lHecheWsHZr5f5_axR1w-30" vertex="1">
          <mxGeometry y="240" width="1558" height="60" as="geometry" />
        </mxCell>
        <mxCell id="-aRjbIlAvJyihVMSlcDC-9" style="connectable=0;recursiveResize=0;strokeColor=inherit;fillColor=none;align=center;whiteSpace=wrap;html=1;" parent="-aRjbIlAvJyihVMSlcDC-8" vertex="1">
          <mxGeometry width="130" height="60" as="geometry">
            <mxRectangle width="130" height="60" as="alternateBounds" />
          </mxGeometry>
        </mxCell>
        <mxCell id="-aRjbIlAvJyihVMSlcDC-10" style="connectable=0;recursiveResize=0;strokeColor=inherit;fillColor=none;align=center;whiteSpace=wrap;html=1;" parent="-aRjbIlAvJyihVMSlcDC-8" vertex="1">
          <mxGeometry x="130" width="130" height="60" as="geometry">
            <mxRectangle width="130" height="60" as="alternateBounds" />
          </mxGeometry>
        </mxCell>
        <mxCell id="-aRjbIlAvJyihVMSlcDC-11" value="&lt;font style=&quot;font-size: 30px;&quot;&gt;空白&lt;/font&gt;" style="connectable=0;recursiveResize=0;strokeColor=inherit;fillColor=none;align=left;whiteSpace=wrap;html=1;" parent="-aRjbIlAvJyihVMSlcDC-8" vertex="1">
          <mxGeometry x="260" width="288" height="60" as="geometry">
            <mxRectangle width="288" height="60" as="alternateBounds" />
          </mxGeometry>
        </mxCell>
        <mxCell id="-aRjbIlAvJyihVMSlcDC-15" style="connectable=0;recursiveResize=0;strokeColor=inherit;fillColor=none;align=left;whiteSpace=wrap;html=1;" parent="-aRjbIlAvJyihVMSlcDC-8" vertex="1">
          <mxGeometry x="548" width="350" height="60" as="geometry">
            <mxRectangle width="350" height="60" as="alternateBounds" />
          </mxGeometry>
        </mxCell>
        <mxCell id="-aRjbIlAvJyihVMSlcDC-27" style="connectable=0;recursiveResize=0;strokeColor=inherit;fillColor=none;align=left;whiteSpace=wrap;html=1;" parent="-aRjbIlAvJyihVMSlcDC-8" vertex="1">
          <mxGeometry x="898" width="352" height="60" as="geometry">
            <mxRectangle width="352" height="60" as="alternateBounds" />
          </mxGeometry>
        </mxCell>
        <mxCell id="-aRjbIlAvJyihVMSlcDC-46" style="connectable=0;recursiveResize=0;strokeColor=inherit;fillColor=none;align=left;whiteSpace=wrap;html=1;" parent="-aRjbIlAvJyihVMSlcDC-8" vertex="1">
          <mxGeometry x="1250" width="170" height="60" as="geometry">
            <mxRectangle width="170" height="60" as="alternateBounds" />
          </mxGeometry>
        </mxCell>
        <mxCell id="fEjhOvrRUlLvb5Ld7npS-5" style="connectable=0;recursiveResize=0;strokeColor=inherit;fillColor=none;align=left;whiteSpace=wrap;html=1;" vertex="1" parent="-aRjbIlAvJyihVMSlcDC-8">
          <mxGeometry x="1420" width="138" height="60" as="geometry">
            <mxRectangle width="138" height="60" as="alternateBounds" />
          </mxGeometry>
        </mxCell>
        <mxCell id="-aRjbIlAvJyihVMSlcDC-4" style="shape=tableRow;horizontal=0;startSize=0;swimlaneHead=0;swimlaneBody=0;top=0;left=0;bottom=0;right=0;dropTarget=0;collapsible=0;recursiveResize=0;expand=0;fontStyle=0;fillColor=none;strokeColor=inherit;" parent="lHecheWsHZr5f5_axR1w-30" vertex="1">
          <mxGeometry y="300" width="1558" height="60" as="geometry" />
        </mxCell>
        <mxCell id="-aRjbIlAvJyihVMSlcDC-5" value="&lt;font style=&quot;font-size: 30px;&quot;&gt;19;30&lt;/font&gt;" style="connectable=0;recursiveResize=0;strokeColor=inherit;fillColor=none;align=center;whiteSpace=wrap;html=1;" parent="-aRjbIlAvJyihVMSlcDC-4" vertex="1">
          <mxGeometry width="130" height="60" as="geometry">
            <mxRectangle width="130" height="60" as="alternateBounds" />
          </mxGeometry>
        </mxCell>
        <mxCell id="-aRjbIlAvJyihVMSlcDC-6" value="&lt;font style=&quot;font-size: 30px;&quot;&gt;21:00&lt;/font&gt;" style="connectable=0;recursiveResize=0;strokeColor=inherit;fillColor=none;align=center;whiteSpace=wrap;html=1;" parent="-aRjbIlAvJyihVMSlcDC-4" vertex="1">
          <mxGeometry x="130" width="130" height="60" as="geometry">
            <mxRectangle width="130" height="60" as="alternateBounds" />
          </mxGeometry>
        </mxCell>
        <mxCell id="-aRjbIlAvJyihVMSlcDC-7" style="connectable=0;recursiveResize=0;strokeColor=inherit;fillColor=none;align=left;whiteSpace=wrap;html=1;" parent="-aRjbIlAvJyihVMSlcDC-4" vertex="1">
          <mxGeometry x="260" width="288" height="60" as="geometry">
            <mxRectangle width="288" height="60" as="alternateBounds" />
          </mxGeometry>
        </mxCell>
        <mxCell id="-aRjbIlAvJyihVMSlcDC-16" style="connectable=0;recursiveResize=0;strokeColor=inherit;fillColor=none;align=left;whiteSpace=wrap;html=1;" parent="-aRjbIlAvJyihVMSlcDC-4" vertex="1">
          <mxGeometry x="548" width="350" height="60" as="geometry">
            <mxRectangle width="350" height="60" as="alternateBounds" />
          </mxGeometry>
        </mxCell>
        <mxCell id="-aRjbIlAvJyihVMSlcDC-28" style="connectable=0;recursiveResize=0;strokeColor=inherit;fillColor=none;align=left;whiteSpace=wrap;html=1;" parent="-aRjbIlAvJyihVMSlcDC-4" vertex="1">
          <mxGeometry x="898" width="352" height="60" as="geometry">
            <mxRectangle width="352" height="60" as="alternateBounds" />
          </mxGeometry>
        </mxCell>
        <mxCell id="-aRjbIlAvJyihVMSlcDC-47" style="connectable=0;recursiveResize=0;strokeColor=inherit;fillColor=none;align=left;whiteSpace=wrap;html=1;" parent="-aRjbIlAvJyihVMSlcDC-4" vertex="1">
          <mxGeometry x="1250" width="170" height="60" as="geometry">
            <mxRectangle width="170" height="60" as="alternateBounds" />
          </mxGeometry>
        </mxCell>
        <mxCell id="fEjhOvrRUlLvb5Ld7npS-6" style="connectable=0;recursiveResize=0;strokeColor=inherit;fillColor=none;align=left;whiteSpace=wrap;html=1;" vertex="1" parent="-aRjbIlAvJyihVMSlcDC-4">
          <mxGeometry x="1420" width="138" height="60" as="geometry">
            <mxRectangle width="138" height="60" as="alternateBounds" />
          </mxGeometry>
        </mxCell>
        <mxCell id="-aRjbIlAvJyihVMSlcDC-0" style="shape=tableRow;horizontal=0;startSize=0;swimlaneHead=0;swimlaneBody=0;top=0;left=0;bottom=0;right=0;dropTarget=0;collapsible=0;recursiveResize=0;expand=0;fontStyle=0;fillColor=none;strokeColor=inherit;" parent="lHecheWsHZr5f5_axR1w-30" vertex="1">
          <mxGeometry y="360" width="1558" height="60" as="geometry" />
        </mxCell>
        <mxCell id="-aRjbIlAvJyihVMSlcDC-1" style="connectable=0;recursiveResize=0;strokeColor=inherit;fillColor=none;align=center;whiteSpace=wrap;html=1;" parent="-aRjbIlAvJyihVMSlcDC-0" vertex="1">
          <mxGeometry width="130" height="60" as="geometry">
            <mxRectangle width="130" height="60" as="alternateBounds" />
          </mxGeometry>
        </mxCell>
        <mxCell id="-aRjbIlAvJyihVMSlcDC-2" style="connectable=0;recursiveResize=0;strokeColor=inherit;fillColor=none;align=center;whiteSpace=wrap;html=1;" parent="-aRjbIlAvJyihVMSlcDC-0" vertex="1">
          <mxGeometry x="130" width="130" height="60" as="geometry">
            <mxRectangle width="130" height="60" as="alternateBounds" />
          </mxGeometry>
        </mxCell>
        <mxCell id="-aRjbIlAvJyihVMSlcDC-3" style="connectable=0;recursiveResize=0;strokeColor=inherit;fillColor=none;align=left;whiteSpace=wrap;html=1;" parent="-aRjbIlAvJyihVMSlcDC-0" vertex="1">
          <mxGeometry x="260" width="288" height="60" as="geometry">
            <mxRectangle width="288" height="60" as="alternateBounds" />
          </mxGeometry>
        </mxCell>
        <mxCell id="-aRjbIlAvJyihVMSlcDC-17" style="connectable=0;recursiveResize=0;strokeColor=inherit;fillColor=none;align=left;whiteSpace=wrap;html=1;" parent="-aRjbIlAvJyihVMSlcDC-0" vertex="1">
          <mxGeometry x="548" width="350" height="60" as="geometry">
            <mxRectangle width="350" height="60" as="alternateBounds" />
          </mxGeometry>
        </mxCell>
        <mxCell id="-aRjbIlAvJyihVMSlcDC-29" style="connectable=0;recursiveResize=0;strokeColor=inherit;fillColor=none;align=left;whiteSpace=wrap;html=1;" parent="-aRjbIlAvJyihVMSlcDC-0" vertex="1">
          <mxGeometry x="898" width="352" height="60" as="geometry">
            <mxRectangle width="352" height="60" as="alternateBounds" />
          </mxGeometry>
        </mxCell>
        <mxCell id="-aRjbIlAvJyihVMSlcDC-48" style="connectable=0;recursiveResize=0;strokeColor=inherit;fillColor=none;align=left;whiteSpace=wrap;html=1;" parent="-aRjbIlAvJyihVMSlcDC-0" vertex="1">
          <mxGeometry x="1250" width="170" height="60" as="geometry">
            <mxRectangle width="170" height="60" as="alternateBounds" />
          </mxGeometry>
        </mxCell>
        <mxCell id="fEjhOvrRUlLvb5Ld7npS-7" style="connectable=0;recursiveResize=0;strokeColor=inherit;fillColor=none;align=left;whiteSpace=wrap;html=1;" vertex="1" parent="-aRjbIlAvJyihVMSlcDC-0">
          <mxGeometry x="1420" width="138" height="60" as="geometry">
            <mxRectangle width="138" height="60" as="alternateBounds" />
          </mxGeometry>
        </mxCell>
        <mxCell id="-aRjbIlAvJyihVMSlcDC-113" style="shape=tableRow;horizontal=0;startSize=0;swimlaneHead=0;swimlaneBody=0;top=0;left=0;bottom=0;right=0;dropTarget=0;collapsible=0;recursiveResize=0;expand=0;fontStyle=0;fillColor=none;strokeColor=inherit;" parent="lHecheWsHZr5f5_axR1w-30" vertex="1">
          <mxGeometry y="420" width="1558" height="60" as="geometry" />
        </mxCell>
        <mxCell id="-aRjbIlAvJyihVMSlcDC-114" style="connectable=0;recursiveResize=0;strokeColor=inherit;fillColor=none;align=center;whiteSpace=wrap;html=1;" parent="-aRjbIlAvJyihVMSlcDC-113" vertex="1">
          <mxGeometry width="130" height="60" as="geometry">
            <mxRectangle width="130" height="60" as="alternateBounds" />
          </mxGeometry>
        </mxCell>
        <mxCell id="-aRjbIlAvJyihVMSlcDC-115" style="connectable=0;recursiveResize=0;strokeColor=inherit;fillColor=none;align=center;whiteSpace=wrap;html=1;" parent="-aRjbIlAvJyihVMSlcDC-113" vertex="1">
          <mxGeometry x="130" width="130" height="60" as="geometry">
            <mxRectangle width="130" height="60" as="alternateBounds" />
          </mxGeometry>
        </mxCell>
        <mxCell id="-aRjbIlAvJyihVMSlcDC-116" value="&lt;font style=&quot;font-size: 30px;&quot;&gt;合計&lt;/font&gt;" style="connectable=0;recursiveResize=0;strokeColor=inherit;fillColor=none;align=left;whiteSpace=wrap;html=1;" parent="-aRjbIlAvJyihVMSlcDC-113" vertex="1">
          <mxGeometry x="260" width="288" height="60" as="geometry">
            <mxRectangle width="288" height="60" as="alternateBounds" />
          </mxGeometry>
        </mxCell>
        <mxCell id="-aRjbIlAvJyihVMSlcDC-117" value="&lt;font style=&quot;font-size: 30px;&quot;&gt;-240,250&lt;/font&gt;" style="connectable=0;recursiveResize=0;strokeColor=inherit;fillColor=none;align=right;whiteSpace=wrap;html=1;" parent="-aRjbIlAvJyihVMSlcDC-113" vertex="1">
          <mxGeometry x="548" width="350" height="60" as="geometry">
            <mxRectangle width="350" height="60" as="alternateBounds" />
          </mxGeometry>
        </mxCell>
        <mxCell id="-aRjbIlAvJyihVMSlcDC-118" value="&lt;font style=&quot;font-size: 30px;&quot;&gt;1,000,00&lt;/font&gt;" style="connectable=0;recursiveResize=0;strokeColor=inherit;fillColor=none;align=right;whiteSpace=wrap;html=1;" parent="-aRjbIlAvJyihVMSlcDC-113" vertex="1">
          <mxGeometry x="898" width="352" height="60" as="geometry">
            <mxRectangle width="352" height="60" as="alternateBounds" />
          </mxGeometry>
        </mxCell>
        <mxCell id="-aRjbIlAvJyihVMSlcDC-119" style="connectable=0;recursiveResize=0;strokeColor=inherit;fillColor=none;align=left;whiteSpace=wrap;html=1;" parent="-aRjbIlAvJyihVMSlcDC-113" vertex="1">
          <mxGeometry x="1250" width="170" height="60" as="geometry">
            <mxRectangle width="170" height="60" as="alternateBounds" />
          </mxGeometry>
        </mxCell>
        <mxCell id="fEjhOvrRUlLvb5Ld7npS-8" style="connectable=0;recursiveResize=0;strokeColor=inherit;fillColor=none;align=left;whiteSpace=wrap;html=1;" vertex="1" parent="-aRjbIlAvJyihVMSlcDC-113">
          <mxGeometry x="1420" width="138" height="60" as="geometry">
            <mxRectangle width="138" height="60" as="alternateBounds" />
          </mxGeometry>
        </mxCell>
        <mxCell id="-aRjbIlAvJyihVMSlcDC-120" style="shape=tableRow;horizontal=0;startSize=0;swimlaneHead=0;swimlaneBody=0;top=0;left=0;bottom=0;right=0;dropTarget=0;collapsible=0;recursiveResize=0;expand=0;fontStyle=0;fillColor=none;strokeColor=inherit;" parent="lHecheWsHZr5f5_axR1w-30" vertex="1">
          <mxGeometry y="480" width="1558" height="60" as="geometry" />
        </mxCell>
        <mxCell id="-aRjbIlAvJyihVMSlcDC-121" style="connectable=0;recursiveResize=0;strokeColor=inherit;fillColor=none;align=center;whiteSpace=wrap;html=1;" parent="-aRjbIlAvJyihVMSlcDC-120" vertex="1">
          <mxGeometry width="130" height="60" as="geometry">
            <mxRectangle width="130" height="60" as="alternateBounds" />
          </mxGeometry>
        </mxCell>
        <mxCell id="-aRjbIlAvJyihVMSlcDC-122" style="connectable=0;recursiveResize=0;strokeColor=inherit;fillColor=none;align=center;whiteSpace=wrap;html=1;" parent="-aRjbIlAvJyihVMSlcDC-120" vertex="1">
          <mxGeometry x="130" width="130" height="60" as="geometry">
            <mxRectangle width="130" height="60" as="alternateBounds" />
          </mxGeometry>
        </mxCell>
        <mxCell id="-aRjbIlAvJyihVMSlcDC-123" value="&lt;font style=&quot;font-size: 30px;&quot;&gt;差額&lt;/font&gt;" style="connectable=0;recursiveResize=0;strokeColor=inherit;fillColor=none;align=left;whiteSpace=wrap;html=1;" parent="-aRjbIlAvJyihVMSlcDC-120" vertex="1">
          <mxGeometry x="260" width="288" height="60" as="geometry">
            <mxRectangle width="288" height="60" as="alternateBounds" />
          </mxGeometry>
        </mxCell>
        <mxCell id="-aRjbIlAvJyihVMSlcDC-124" value="&lt;font style=&quot;font-size: 30px;&quot;&gt;108,940&lt;/font&gt;" style="connectable=0;recursiveResize=0;strokeColor=inherit;fillColor=none;align=right;whiteSpace=wrap;html=1;" parent="-aRjbIlAvJyihVMSlcDC-120" vertex="1">
          <mxGeometry x="548" width="350" height="60" as="geometry">
            <mxRectangle width="350" height="60" as="alternateBounds" />
          </mxGeometry>
        </mxCell>
        <mxCell id="-aRjbIlAvJyihVMSlcDC-125" value="&lt;span style=&quot;font-size: 30px;&quot;&gt;500,00&lt;/span&gt;" style="connectable=0;recursiveResize=0;strokeColor=inherit;fillColor=none;align=right;whiteSpace=wrap;html=1;" parent="-aRjbIlAvJyihVMSlcDC-120" vertex="1">
          <mxGeometry x="898" width="352" height="60" as="geometry">
            <mxRectangle width="352" height="60" as="alternateBounds" />
          </mxGeometry>
        </mxCell>
        <mxCell id="-aRjbIlAvJyihVMSlcDC-126" style="connectable=0;recursiveResize=0;strokeColor=inherit;fillColor=none;align=left;whiteSpace=wrap;html=1;" parent="-aRjbIlAvJyihVMSlcDC-120" vertex="1">
          <mxGeometry x="1250" width="170" height="60" as="geometry">
            <mxRectangle width="170" height="60" as="alternateBounds" />
          </mxGeometry>
        </mxCell>
        <mxCell id="fEjhOvrRUlLvb5Ld7npS-9" style="connectable=0;recursiveResize=0;strokeColor=inherit;fillColor=none;align=left;whiteSpace=wrap;html=1;" vertex="1" parent="-aRjbIlAvJyihVMSlcDC-120">
          <mxGeometry x="1420" width="138" height="60" as="geometry">
            <mxRectangle width="138" height="60" as="alternateBounds" />
          </mxGeometry>
        </mxCell>
        <mxCell id="-aRjbIlAvJyihVMSlcDC-30" value="&lt;span style=&quot;font-size: 30px;&quot;&gt;▼該当なし&lt;/span&gt;" style="rounded=0;whiteSpace=wrap;html=1;align=left;fillColor=#FFFFFF;" parent="cFaB45KztUIKXS-_cTrr-14" vertex="1">
          <mxGeometry x="575" y="1190" width="331" height="48" as="geometry" />
        </mxCell>
        <mxCell id="-aRjbIlAvJyihVMSlcDC-32" value="&lt;span style=&quot;font-size: 30px;&quot;&gt;▼書籍代 -10,250&lt;/span&gt;" style="rounded=0;whiteSpace=wrap;html=1;align=left;fillColor=#FFFFFF;" parent="cFaB45KztUIKXS-_cTrr-14" vertex="1">
          <mxGeometry x="575" y="1250" width="331" height="48" as="geometry" />
        </mxCell>
        <mxCell id="-aRjbIlAvJyihVMSlcDC-33" value="&lt;span style=&quot;font-size: 30px;&quot;&gt;▼該当なし&lt;/span&gt;" style="rounded=0;whiteSpace=wrap;html=1;align=left;fillColor=#FFFFFF;" parent="cFaB45KztUIKXS-_cTrr-14" vertex="1">
          <mxGeometry x="925" y="1190" width="333" height="48" as="geometry" />
        </mxCell>
        <mxCell id="-aRjbIlAvJyihVMSlcDC-34" value="&lt;span style=&quot;font-size: 30px;&quot;&gt;▼該当なし&lt;/span&gt;" style="rounded=0;whiteSpace=wrap;html=1;align=left;fillColor=#FFFFFF;" parent="cFaB45KztUIKXS-_cTrr-14" vertex="1">
          <mxGeometry x="924" y="1249" width="333" height="48" as="geometry" />
        </mxCell>
        <mxCell id="-aRjbIlAvJyihVMSlcDC-35" value="&lt;span style=&quot;font-size: 30px;&quot;&gt;▼おやつ -1,100&lt;/span&gt;" style="rounded=0;whiteSpace=wrap;html=1;align=left;fillColor=#FFFFFF;" parent="cFaB45KztUIKXS-_cTrr-14" vertex="1">
          <mxGeometry x="574" y="1310" width="332" height="48" as="geometry" />
        </mxCell>
        <mxCell id="-aRjbIlAvJyihVMSlcDC-36" value="&lt;span style=&quot;font-size: 30px;&quot;&gt;▼該当なし&lt;/span&gt;" style="rounded=0;whiteSpace=wrap;html=1;align=left;fillColor=#FFFFFF;" parent="cFaB45KztUIKXS-_cTrr-14" vertex="1">
          <mxGeometry x="925" y="1309" width="334" height="48" as="geometry" />
        </mxCell>
        <mxCell id="-aRjbIlAvJyihVMSlcDC-37" value="&lt;span style=&quot;font-size: 30px;&quot;&gt;政策報告会&lt;/span&gt;" style="connectable=0;recursiveResize=0;strokeColor=inherit;fillColor=none;align=left;whiteSpace=wrap;html=1;" parent="cFaB45KztUIKXS-_cTrr-14" vertex="1">
          <mxGeometry x="283" y="1423" width="290" height="60" as="geometry">
            <mxRectangle width="290" height="60" as="alternateBounds" />
          </mxGeometry>
        </mxCell>
        <mxCell id="-aRjbIlAvJyihVMSlcDC-38" value="&lt;span style=&quot;font-size: 30px;&quot;&gt;▼弁当代-1,000×120&lt;/span&gt;" style="rounded=0;whiteSpace=wrap;html=1;align=left;fillColor=#FFFFFF;" parent="cFaB45KztUIKXS-_cTrr-14" vertex="1">
          <mxGeometry x="573" y="1430" width="333" height="48" as="geometry" />
        </mxCell>
        <mxCell id="-aRjbIlAvJyihVMSlcDC-39" value="&lt;span style=&quot;font-size: 30px;&quot;&gt;▼参加費 10,000×100&lt;/span&gt;" style="rounded=0;whiteSpace=wrap;html=1;align=left;fillColor=#FFFFFF;" parent="cFaB45KztUIKXS-_cTrr-14" vertex="1">
          <mxGeometry x="925" y="1430" width="331" height="48" as="geometry" />
        </mxCell>
        <mxCell id="-aRjbIlAvJyihVMSlcDC-41" value="&lt;font style=&quot;font-size: 30px;&quot;&gt;行追加&lt;/font&gt;" style="rounded=1;whiteSpace=wrap;html=1;strokeWidth=4;" parent="cFaB45KztUIKXS-_cTrr-14" vertex="1">
          <mxGeometry x="28" y="1489" width="120" height="50" as="geometry" />
        </mxCell>
        <mxCell id="-aRjbIlAvJyihVMSlcDC-99" value="&lt;font style=&quot;font-size: 30px;&quot;&gt;&lt;b&gt;↑&lt;/b&gt;&lt;/font&gt;" style="rounded=1;whiteSpace=wrap;html=1;strokeWidth=4;" parent="cFaB45KztUIKXS-_cTrr-14" vertex="1">
          <mxGeometry x="1296" y="1189" width="50" height="50" as="geometry" />
        </mxCell>
        <mxCell id="-aRjbIlAvJyihVMSlcDC-100" value="&lt;span style=&quot;font-size: 30px;&quot;&gt;&lt;b&gt;↓&lt;/b&gt;&lt;/span&gt;" style="rounded=1;whiteSpace=wrap;html=1;strokeWidth=4;" parent="cFaB45KztUIKXS-_cTrr-14" vertex="1">
          <mxGeometry x="1366" y="1189" width="50" height="50" as="geometry" />
        </mxCell>
        <mxCell id="-aRjbIlAvJyihVMSlcDC-101" style="connectable=0;recursiveResize=0;strokeColor=inherit;fillColor=none;align=left;whiteSpace=wrap;html=1;" parent="cFaB45KztUIKXS-_cTrr-14" vertex="1">
          <mxGeometry x="1270" y="1243" width="170" height="60" as="geometry">
            <mxRectangle width="170" height="60" as="alternateBounds" />
          </mxGeometry>
        </mxCell>
        <mxCell id="-aRjbIlAvJyihVMSlcDC-102" value="&lt;font style=&quot;font-size: 30px;&quot;&gt;&lt;b&gt;↑&lt;/b&gt;&lt;/font&gt;" style="rounded=1;whiteSpace=wrap;html=1;strokeWidth=4;" parent="cFaB45KztUIKXS-_cTrr-14" vertex="1">
          <mxGeometry x="1296" y="1249" width="50" height="50" as="geometry" />
        </mxCell>
        <mxCell id="-aRjbIlAvJyihVMSlcDC-103" value="&lt;span style=&quot;font-size: 30px;&quot;&gt;&lt;b&gt;↓&lt;/b&gt;&lt;/span&gt;" style="rounded=1;whiteSpace=wrap;html=1;strokeWidth=4;" parent="cFaB45KztUIKXS-_cTrr-14" vertex="1">
          <mxGeometry x="1366" y="1249" width="50" height="50" as="geometry" />
        </mxCell>
        <mxCell id="-aRjbIlAvJyihVMSlcDC-104" style="connectable=0;recursiveResize=0;strokeColor=inherit;fillColor=none;align=left;whiteSpace=wrap;html=1;" parent="cFaB45KztUIKXS-_cTrr-14" vertex="1">
          <mxGeometry x="1273" y="1303" width="170" height="60" as="geometry">
            <mxRectangle width="170" height="60" as="alternateBounds" />
          </mxGeometry>
        </mxCell>
        <mxCell id="-aRjbIlAvJyihVMSlcDC-105" value="&lt;font style=&quot;font-size: 30px;&quot;&gt;&lt;b&gt;↑&lt;/b&gt;&lt;/font&gt;" style="rounded=1;whiteSpace=wrap;html=1;strokeWidth=4;" parent="cFaB45KztUIKXS-_cTrr-14" vertex="1">
          <mxGeometry x="1296" y="1309" width="50" height="50" as="geometry" />
        </mxCell>
        <mxCell id="-aRjbIlAvJyihVMSlcDC-106" value="&lt;span style=&quot;font-size: 30px;&quot;&gt;&lt;b&gt;↓&lt;/b&gt;&lt;/span&gt;" style="rounded=1;whiteSpace=wrap;html=1;strokeWidth=4;" parent="cFaB45KztUIKXS-_cTrr-14" vertex="1">
          <mxGeometry x="1366" y="1309" width="50" height="50" as="geometry" />
        </mxCell>
        <mxCell id="-aRjbIlAvJyihVMSlcDC-107" style="connectable=0;recursiveResize=0;strokeColor=inherit;fillColor=none;align=left;whiteSpace=wrap;html=1;" parent="cFaB45KztUIKXS-_cTrr-14" vertex="1">
          <mxGeometry x="1270" y="1362" width="170" height="60" as="geometry">
            <mxRectangle width="170" height="60" as="alternateBounds" />
          </mxGeometry>
        </mxCell>
        <mxCell id="-aRjbIlAvJyihVMSlcDC-108" value="&lt;font style=&quot;font-size: 30px;&quot;&gt;&lt;b&gt;↑&lt;/b&gt;&lt;/font&gt;" style="rounded=1;whiteSpace=wrap;html=1;strokeWidth=4;" parent="cFaB45KztUIKXS-_cTrr-14" vertex="1">
          <mxGeometry x="1296" y="1368" width="50" height="50" as="geometry" />
        </mxCell>
        <mxCell id="-aRjbIlAvJyihVMSlcDC-109" value="&lt;span style=&quot;font-size: 30px;&quot;&gt;&lt;b&gt;↓&lt;/b&gt;&lt;/span&gt;" style="rounded=1;whiteSpace=wrap;html=1;strokeWidth=4;" parent="cFaB45KztUIKXS-_cTrr-14" vertex="1">
          <mxGeometry x="1366" y="1368" width="50" height="50" as="geometry" />
        </mxCell>
        <mxCell id="-aRjbIlAvJyihVMSlcDC-110" style="connectable=0;recursiveResize=0;strokeColor=inherit;fillColor=none;align=left;whiteSpace=wrap;html=1;" parent="cFaB45KztUIKXS-_cTrr-14" vertex="1">
          <mxGeometry x="1269" y="1423" width="170" height="60" as="geometry">
            <mxRectangle width="170" height="60" as="alternateBounds" />
          </mxGeometry>
        </mxCell>
        <mxCell id="-aRjbIlAvJyihVMSlcDC-111" value="&lt;font style=&quot;font-size: 30px;&quot;&gt;&lt;b&gt;↑&lt;/b&gt;&lt;/font&gt;" style="rounded=1;whiteSpace=wrap;html=1;strokeWidth=4;" parent="cFaB45KztUIKXS-_cTrr-14" vertex="1">
          <mxGeometry x="1295" y="1429" width="50" height="50" as="geometry" />
        </mxCell>
        <mxCell id="-aRjbIlAvJyihVMSlcDC-112" value="&lt;span style=&quot;font-size: 30px;&quot;&gt;&lt;b&gt;↓&lt;/b&gt;&lt;/span&gt;" style="rounded=1;whiteSpace=wrap;html=1;strokeWidth=4;" parent="cFaB45KztUIKXS-_cTrr-14" vertex="1">
          <mxGeometry x="1365" y="1429" width="50" height="50" as="geometry" />
        </mxCell>
        <mxCell id="-aRjbIlAvJyihVMSlcDC-127" value="&lt;span style=&quot;font-size: 30px;&quot;&gt;スケジュールのエビデンス&lt;/span&gt;" style="rounded=0;whiteSpace=wrap;html=1;align=left;dashed=1;dashPattern=8 8;verticalAlign=bottom;" parent="cFaB45KztUIKXS-_cTrr-14" vertex="1">
          <mxGeometry x="30" y="427" width="380" height="46" as="geometry" />
        </mxCell>
        <mxCell id="-aRjbIlAvJyihVMSlcDC-128" value="&lt;font style=&quot;font-size: 30px;&quot;&gt;http://www.yyy.houdou.co.jp/20221211/xxx-yotei.html&lt;/font&gt;" style="rounded=1;whiteSpace=wrap;html=1;align=left;strokeWidth=4;verticalAlign=top;" parent="cFaB45KztUIKXS-_cTrr-14" vertex="1">
          <mxGeometry x="60" y="490" width="1440" height="140" as="geometry" />
        </mxCell>
        <mxCell id="-aRjbIlAvJyihVMSlcDC-130" value="&lt;font style=&quot;font-size: 84px;&quot;&gt;○&lt;/font&gt;" style="text;html=1;strokeColor=none;fillColor=none;align=center;verticalAlign=middle;whiteSpace=wrap;rounded=0;fontSize=60;" parent="cFaB45KztUIKXS-_cTrr-14" vertex="1">
          <mxGeometry x="440" y="432" width="60" height="30" as="geometry" />
        </mxCell>
        <mxCell id="-aRjbIlAvJyihVMSlcDC-131" value="&lt;font style=&quot;font-size: 48px;&quot;&gt;●&lt;/font&gt;" style="text;html=1;strokeColor=none;fillColor=none;align=center;verticalAlign=middle;whiteSpace=wrap;rounded=0;fontSize=48;" parent="cFaB45KztUIKXS-_cTrr-14" vertex="1">
          <mxGeometry x="440" y="434" width="60" height="30" as="geometry" />
        </mxCell>
        <mxCell id="-aRjbIlAvJyihVMSlcDC-132" value="&lt;span style=&quot;font-size: 30px;&quot;&gt;報道&lt;br&gt;&lt;/span&gt;" style="text;html=1;strokeColor=none;fillColor=none;align=left;verticalAlign=middle;whiteSpace=wrap;rounded=0;" parent="cFaB45KztUIKXS-_cTrr-14" vertex="1">
          <mxGeometry x="495" y="421" width="275" height="60" as="geometry" />
        </mxCell>
        <mxCell id="-aRjbIlAvJyihVMSlcDC-133" value="&lt;font style=&quot;font-size: 84px;&quot;&gt;○&lt;/font&gt;" style="text;html=1;strokeColor=none;fillColor=none;align=center;verticalAlign=middle;whiteSpace=wrap;rounded=0;fontSize=60;" parent="cFaB45KztUIKXS-_cTrr-14" vertex="1">
          <mxGeometry x="580" y="432" width="60" height="30" as="geometry" />
        </mxCell>
        <mxCell id="-aRjbIlAvJyihVMSlcDC-134" value="&lt;span style=&quot;font-size: 30px;&quot;&gt;独自取材&lt;br&gt;&lt;/span&gt;" style="text;html=1;strokeColor=none;fillColor=none;align=left;verticalAlign=middle;whiteSpace=wrap;rounded=0;" parent="cFaB45KztUIKXS-_cTrr-14" vertex="1">
          <mxGeometry x="632" y="421" width="315" height="60" as="geometry" />
        </mxCell>
        <mxCell id="-aRjbIlAvJyihVMSlcDC-135" value="" style="rounded=1;whiteSpace=wrap;html=1;strokeWidth=4;" parent="cFaB45KztUIKXS-_cTrr-14" vertex="1">
          <mxGeometry x="22" y="1730" width="1498" height="180" as="geometry" />
        </mxCell>
        <mxCell id="-aRjbIlAvJyihVMSlcDC-136" value="&lt;span style=&quot;font-size: 30px;&quot;&gt;未分類項目&lt;/span&gt;" style="text;html=1;strokeColor=none;fillColor=none;align=left;verticalAlign=middle;whiteSpace=wrap;rounded=0;" parent="cFaB45KztUIKXS-_cTrr-14" vertex="1">
          <mxGeometry x="36" y="1680" width="250" height="40" as="geometry" />
        </mxCell>
        <mxCell id="-aRjbIlAvJyihVMSlcDC-137" value="&lt;span style=&quot;font-size: 30px;&quot;&gt;▼A氏寄付200,000&lt;/span&gt;" style="rounded=0;whiteSpace=wrap;html=1;align=left;fillColor=#FFFFFF;" parent="cFaB45KztUIKXS-_cTrr-14" vertex="1">
          <mxGeometry x="45" y="1739" width="334" height="48" as="geometry" />
        </mxCell>
        <mxCell id="-aRjbIlAvJyihVMSlcDC-138" value="&lt;span style=&quot;font-size: 30px;&quot;&gt;▼B氏寄付300,000&lt;/span&gt;" style="rounded=0;whiteSpace=wrap;html=1;align=left;fillColor=#FFFFFF;" parent="cFaB45KztUIKXS-_cTrr-14" vertex="1">
          <mxGeometry x="398" y="1740" width="334" height="48" as="geometry" />
        </mxCell>
        <mxCell id="-aRjbIlAvJyihVMSlcDC-139" value="&lt;span style=&quot;font-size: 30px;&quot;&gt;▼議員X氏寄付-50,000&lt;/span&gt;" style="rounded=0;whiteSpace=wrap;html=1;align=left;fillColor=#FFFFFF;" parent="cFaB45KztUIKXS-_cTrr-14" vertex="1">
          <mxGeometry x="41" y="1799" width="334" height="48" as="geometry" />
        </mxCell>
        <mxCell id="-aRjbIlAvJyihVMSlcDC-140" value="&lt;span style=&quot;font-size: 30px;&quot;&gt;▼喫茶 -8.940円&lt;/span&gt;" style="rounded=0;whiteSpace=wrap;html=1;align=left;fillColor=#FFFFFF;" parent="cFaB45KztUIKXS-_cTrr-14" vertex="1">
          <mxGeometry x="746" y="1797" width="332" height="48" as="geometry" />
        </mxCell>
        <mxCell id="-aRjbIlAvJyihVMSlcDC-141" value="&lt;span style=&quot;font-size: 30px;&quot;&gt;▼議員Y氏寄付-50,000&lt;/span&gt;" style="rounded=0;whiteSpace=wrap;html=1;align=left;fillColor=#FFFFFF;" parent="cFaB45KztUIKXS-_cTrr-14" vertex="1">
          <mxGeometry x="394" y="1798" width="334" height="48" as="geometry" />
        </mxCell>
        <mxCell id="-aRjbIlAvJyihVMSlcDC-142" value="&lt;span style=&quot;font-size: 30px;&quot;&gt;Upload&lt;/span&gt;" style="rounded=1;whiteSpace=wrap;html=1;fillColor=#FFFFFF;strokeWidth=3;" parent="cFaB45KztUIKXS-_cTrr-14" vertex="1">
          <mxGeometry x="1286" y="710" width="210" height="60" as="geometry" />
        </mxCell>
        <mxCell id="XEzsyxBTXAWv2MW_PeDP-0" value="&lt;span style=&quot;font-size: 30px;&quot;&gt;証票保存&lt;/span&gt;" style="text;html=1;strokeColor=none;fillColor=none;align=left;verticalAlign=middle;whiteSpace=wrap;rounded=0;" parent="cFaB45KztUIKXS-_cTrr-14" vertex="1">
          <mxGeometry x="20" y="660" width="250" height="40" as="geometry" />
        </mxCell>
        <mxCell id="XEzsyxBTXAWv2MW_PeDP-2" value="" style="rounded=0;whiteSpace=wrap;html=1;" parent="cFaB45KztUIKXS-_cTrr-14" vertex="1">
          <mxGeometry x="50" y="710" width="1203" height="60" as="geometry" />
        </mxCell>
        <mxCell id="XEzsyxBTXAWv2MW_PeDP-6" value="&lt;span style=&quot;font-size: 30px;&quot;&gt;保存予定ファイル&lt;/span&gt;" style="text;html=1;strokeColor=none;fillColor=none;align=left;verticalAlign=middle;whiteSpace=wrap;rounded=0;" parent="cFaB45KztUIKXS-_cTrr-14" vertex="1">
          <mxGeometry x="16" y="800" width="250" height="40" as="geometry" />
        </mxCell>
        <mxCell id="XEzsyxBTXAWv2MW_PeDP-7" value="&lt;span style=&quot;font-size: 30px;&quot;&gt;3&lt;/span&gt;" style="rounded=0;whiteSpace=wrap;html=1;align=right;fillColor=#CCCCCC;" parent="cFaB45KztUIKXS-_cTrr-14" vertex="1">
          <mxGeometry x="292" y="799" width="108" height="48" as="geometry" />
        </mxCell>
        <mxCell id="XEzsyxBTXAWv2MW_PeDP-8" value="&lt;span style=&quot;font-size: 30px;&quot;&gt;GB以内&lt;/span&gt;" style="text;html=1;strokeColor=none;fillColor=none;align=left;verticalAlign=middle;whiteSpace=wrap;rounded=0;" parent="cFaB45KztUIKXS-_cTrr-14" vertex="1">
          <mxGeometry x="402" y="801" width="250" height="40" as="geometry" />
        </mxCell>
        <mxCell id="XEzsyxBTXAWv2MW_PeDP-9" value="&lt;font style=&quot;font-size: 36px;&quot;&gt;aabbccc.doc&lt;/font&gt;" style="rounded=0;whiteSpace=wrap;html=1;align=left;fillColor=#CCCCCC;" parent="cFaB45KztUIKXS-_cTrr-14" vertex="1">
          <mxGeometry x="62" y="879" width="408" height="48" as="geometry" />
        </mxCell>
        <mxCell id="XEzsyxBTXAWv2MW_PeDP-10" value="&lt;font style=&quot;font-size: 36px;&quot;&gt;xxyyzz.mp4&lt;/font&gt;" style="rounded=0;whiteSpace=wrap;html=1;align=left;fillColor=#CCCCCC;" parent="cFaB45KztUIKXS-_cTrr-14" vertex="1">
          <mxGeometry x="62" y="939" width="408" height="48" as="geometry" />
        </mxCell>
        <mxCell id="XEzsyxBTXAWv2MW_PeDP-16" value="&lt;span style=&quot;font-size: 30px;&quot;&gt;11&lt;/span&gt;" style="rounded=0;whiteSpace=wrap;html=1;align=right;fillColor=#CCCCCC;" parent="cFaB45KztUIKXS-_cTrr-14" vertex="1">
          <mxGeometry x="502" y="879" width="108" height="48" as="geometry" />
        </mxCell>
        <mxCell id="XEzsyxBTXAWv2MW_PeDP-17" value="&lt;span style=&quot;font-size: 30px;&quot;&gt;150&lt;/span&gt;" style="rounded=0;whiteSpace=wrap;html=1;align=right;fillColor=#CCCCCC;" parent="cFaB45KztUIKXS-_cTrr-14" vertex="1">
          <mxGeometry x="502" y="939" width="108" height="48" as="geometry" />
        </mxCell>
        <mxCell id="XEzsyxBTXAWv2MW_PeDP-18" value="&lt;span style=&quot;font-size: 30px;&quot;&gt;MB&lt;/span&gt;" style="text;html=1;strokeColor=none;fillColor=none;align=left;verticalAlign=middle;whiteSpace=wrap;rounded=0;" parent="cFaB45KztUIKXS-_cTrr-14" vertex="1">
          <mxGeometry x="622" y="881" width="88" height="40" as="geometry" />
        </mxCell>
        <mxCell id="XEzsyxBTXAWv2MW_PeDP-21" value="&lt;span style=&quot;font-size: 30px;&quot;&gt;MB&lt;/span&gt;" style="text;html=1;strokeColor=none;fillColor=none;align=left;verticalAlign=middle;whiteSpace=wrap;rounded=0;" parent="cFaB45KztUIKXS-_cTrr-14" vertex="1">
          <mxGeometry x="622" y="940" width="88" height="40" as="geometry" />
        </mxCell>
        <mxCell id="XEzsyxBTXAWv2MW_PeDP-22" value="&lt;span style=&quot;font-size: 30px;&quot;&gt;現在の合計&lt;/span&gt;" style="text;html=1;strokeColor=none;fillColor=none;align=left;verticalAlign=middle;whiteSpace=wrap;rounded=0;" parent="cFaB45KztUIKXS-_cTrr-14" vertex="1">
          <mxGeometry x="254" y="1010" width="250" height="40" as="geometry" />
        </mxCell>
        <mxCell id="XEzsyxBTXAWv2MW_PeDP-23" value="&lt;span style=&quot;font-size: 30px;&quot;&gt;163&lt;/span&gt;" style="rounded=0;whiteSpace=wrap;html=1;align=right;fillColor=#CCCCCC;" parent="cFaB45KztUIKXS-_cTrr-14" vertex="1">
          <mxGeometry x="502" y="1009" width="108" height="48" as="geometry" />
        </mxCell>
        <mxCell id="XEzsyxBTXAWv2MW_PeDP-24" value="&lt;span style=&quot;font-size: 30px;&quot;&gt;MB&lt;/span&gt;" style="text;html=1;strokeColor=none;fillColor=none;align=left;verticalAlign=middle;whiteSpace=wrap;rounded=0;" parent="cFaB45KztUIKXS-_cTrr-14" vertex="1">
          <mxGeometry x="622" y="1012" width="88" height="40" as="geometry" />
        </mxCell>
        <mxCell id="XEzsyxBTXAWv2MW_PeDP-25" value="&lt;span style=&quot;font-size: 30px;&quot;&gt;一日のスケジュール&lt;/span&gt;" style="text;html=1;strokeColor=none;fillColor=none;align=left;verticalAlign=middle;whiteSpace=wrap;rounded=0;" parent="cFaB45KztUIKXS-_cTrr-14" vertex="1">
          <mxGeometry x="34" y="1070" width="326" height="40" as="geometry" />
        </mxCell>
        <mxCell id="_3odEwDsRPujIWQZYAfZ-0" value="" style="rounded=1;whiteSpace=wrap;html=1;strokeWidth=4;" parent="cFaB45KztUIKXS-_cTrr-14" vertex="1">
          <mxGeometry x="40" y="90" width="160" height="160" as="geometry" />
        </mxCell>
        <mxCell id="_3odEwDsRPujIWQZYAfZ-1" value="" style="shape=actor;whiteSpace=wrap;html=1;strokeWidth=4;" parent="cFaB45KztUIKXS-_cTrr-14" vertex="1">
          <mxGeometry x="60" y="110" width="120" height="120" as="geometry" />
        </mxCell>
        <mxCell id="_3odEwDsRPujIWQZYAfZ-2" value="&lt;span style=&quot;font-size: 30px;&quot;&gt;政治家個人&lt;/span&gt;" style="rounded=0;whiteSpace=wrap;html=1;align=left;fillColor=#CCCCCC;" parent="cFaB45KztUIKXS-_cTrr-14" vertex="1">
          <mxGeometry x="220" y="84" width="230" height="48" as="geometry" />
        </mxCell>
        <mxCell id="_3odEwDsRPujIWQZYAfZ-3" value="&lt;span style=&quot;font-size: 30px;&quot;&gt;さんは所属議会で&lt;/span&gt;" style="rounded=0;whiteSpace=wrap;html=1;align=left;dashed=1;dashPattern=8 8;verticalAlign=bottom;" parent="cFaB45KztUIKXS-_cTrr-14" vertex="1">
          <mxGeometry x="460" y="86" width="260" height="46" as="geometry" />
        </mxCell>
        <mxCell id="_3odEwDsRPujIWQZYAfZ-4" value="&lt;span style=&quot;font-size: 30px;&quot;&gt;××○○党&lt;/span&gt;" style="rounded=0;whiteSpace=wrap;html=1;align=left;fillColor=#CCCCCC;" parent="cFaB45KztUIKXS-_cTrr-14" vertex="1">
          <mxGeometry x="220" y="154" width="280" height="48" as="geometry" />
        </mxCell>
        <mxCell id="_3odEwDsRPujIWQZYAfZ-5" value="&lt;span style=&quot;font-size: 30px;&quot;&gt;◆◆議会会派&lt;/span&gt;" style="rounded=0;whiteSpace=wrap;html=1;align=left;fillColor=#CCCCCC;" parent="cFaB45KztUIKXS-_cTrr-14" vertex="1">
          <mxGeometry x="969" y="158" width="230" height="48" as="geometry" />
        </mxCell>
        <mxCell id="_3odEwDsRPujIWQZYAfZ-6" value="&lt;font style=&quot;font-size: 30px;&quot;&gt;△△県会議所属&lt;/font&gt;" style="rounded=0;whiteSpace=wrap;html=1;align=left;fillColor=#CCCCCC;" parent="cFaB45KztUIKXS-_cTrr-14" vertex="1">
          <mxGeometry x="528" y="159" width="230" height="48" as="geometry" />
        </mxCell>
        <mxCell id="_3odEwDsRPujIWQZYAfZ-7" value="&lt;div style=&quot;&quot;&gt;&lt;span style=&quot;font-size: 30px;&quot;&gt;☑議会役職&lt;/span&gt;&lt;/div&gt;" style="rounded=0;whiteSpace=wrap;html=1;align=left;fillColor=#CCCCCC;" parent="cFaB45KztUIKXS-_cTrr-14" vertex="1">
          <mxGeometry x="773" y="157" width="174" height="48" as="geometry" />
        </mxCell>
        <mxCell id="_3odEwDsRPujIWQZYAfZ-8" value="&lt;div style=&quot;&quot;&gt;&lt;span style=&quot;font-size: 30px;&quot;&gt;☑会派役職&lt;/span&gt;&lt;/div&gt;" style="rounded=0;whiteSpace=wrap;html=1;align=left;fillColor=#CCCCCC;" parent="cFaB45KztUIKXS-_cTrr-14" vertex="1">
          <mxGeometry x="1214" y="158" width="196" height="48" as="geometry" />
        </mxCell>
        <mxCell id="_3odEwDsRPujIWQZYAfZ-9" value="&lt;div style=&quot;&quot;&gt;&lt;span style=&quot;font-size: 30px;&quot;&gt;多数&lt;/span&gt;&lt;/div&gt;" style="rounded=0;whiteSpace=wrap;html=1;align=right;fillColor=#CCCCCC;" parent="cFaB45KztUIKXS-_cTrr-14" vertex="1">
          <mxGeometry x="736" y="83" width="71" height="48" as="geometry" />
        </mxCell>
        <mxCell id="_3odEwDsRPujIWQZYAfZ-10" value="&lt;span style=&quot;font-size: 30px;&quot;&gt;側所属です&lt;/span&gt;" style="rounded=0;whiteSpace=wrap;html=1;align=left;dashed=1;dashPattern=8 8;verticalAlign=bottom;" parent="cFaB45KztUIKXS-_cTrr-14" vertex="1">
          <mxGeometry x="830" y="86" width="260" height="46" as="geometry" />
        </mxCell>
        <mxCell id="_3odEwDsRPujIWQZYAfZ-11" value="&lt;span style=&quot;font-size: 30px;&quot;&gt;◆◆派閥&lt;/span&gt;" style="rounded=0;whiteSpace=wrap;html=1;align=left;fillColor=#CCCCCC;" parent="cFaB45KztUIKXS-_cTrr-14" vertex="1">
          <mxGeometry x="526" y="219" width="230" height="48" as="geometry" />
        </mxCell>
        <mxCell id="_3odEwDsRPujIWQZYAfZ-12" value="&lt;div style=&quot;&quot;&gt;&lt;span style=&quot;font-size: 30px;&quot;&gt;☑派閥役職&lt;/span&gt;&lt;/div&gt;" style="rounded=0;whiteSpace=wrap;html=1;align=left;fillColor=#CCCCCC;" parent="cFaB45KztUIKXS-_cTrr-14" vertex="1">
          <mxGeometry x="772" y="219" width="174" height="48" as="geometry" />
        </mxCell>
        <mxCell id="_3odEwDsRPujIWQZYAfZ-13" value="&lt;span style=&quot;font-size: 30px;&quot;&gt;◆◆委員会&lt;/span&gt;" style="rounded=0;whiteSpace=wrap;html=1;align=left;fillColor=#CCCCCC;" parent="cFaB45KztUIKXS-_cTrr-14" vertex="1">
          <mxGeometry x="969" y="218" width="230" height="48" as="geometry" />
        </mxCell>
        <mxCell id="_3odEwDsRPujIWQZYAfZ-14" value="&lt;div style=&quot;&quot;&gt;&lt;span style=&quot;font-size: 30px;&quot;&gt;☑委員会役職&lt;/span&gt;&lt;/div&gt;" style="rounded=0;whiteSpace=wrap;html=1;align=left;fillColor=#CCCCCC;" parent="cFaB45KztUIKXS-_cTrr-14" vertex="1">
          <mxGeometry x="1214" y="218" width="196" height="48" as="geometry" />
        </mxCell>
        <mxCell id="_3odEwDsRPujIWQZYAfZ-15" value="&lt;div style=&quot;&quot;&gt;&lt;span style=&quot;font-size: 30px;&quot;&gt;☑党役職&lt;/span&gt;&lt;/div&gt;" style="rounded=0;whiteSpace=wrap;html=1;align=left;fillColor=#CCCCCC;" parent="cFaB45KztUIKXS-_cTrr-14" vertex="1">
          <mxGeometry x="220" y="218" width="270" height="48" as="geometry" />
        </mxCell>
        <mxCell id="646cs2RW72o9KWsHCmmi-0" value="&lt;span style=&quot;font-size: 30px;&quot;&gt;20221201&lt;/span&gt;" style="rounded=0;whiteSpace=wrap;html=1;align=left;fillColor=#FFFFFF;" parent="cFaB45KztUIKXS-_cTrr-14" vertex="1">
          <mxGeometry x="30" y="360" width="334" height="48" as="geometry" />
        </mxCell>
        <mxCell id="646cs2RW72o9KWsHCmmi-1" value="&lt;span style=&quot;font-size: 30px;&quot;&gt;日分&lt;/span&gt;" style="rounded=0;whiteSpace=wrap;html=1;align=left;dashed=1;dashPattern=8 8;verticalAlign=bottom;" parent="cFaB45KztUIKXS-_cTrr-14" vertex="1">
          <mxGeometry x="390" y="361" width="380" height="46" as="geometry" />
        </mxCell>
        <mxCell id="fEjhOvrRUlLvb5Ld7npS-0" value="&lt;span style=&quot;font-size: 30px;&quot;&gt;&lt;b&gt;削除&lt;/b&gt;&lt;/span&gt;" style="rounded=1;whiteSpace=wrap;html=1;strokeWidth=4;" vertex="1" parent="cFaB45KztUIKXS-_cTrr-14">
          <mxGeometry x="1456" y="1189" width="104" height="50" as="geometry" />
        </mxCell>
        <mxCell id="fEjhOvrRUlLvb5Ld7npS-10" value="&lt;span style=&quot;font-size: 30px;&quot;&gt;&lt;b&gt;削除&lt;/b&gt;&lt;/span&gt;" style="rounded=1;whiteSpace=wrap;html=1;strokeWidth=4;" vertex="1" parent="cFaB45KztUIKXS-_cTrr-14">
          <mxGeometry x="1456" y="1250" width="104" height="50" as="geometry" />
        </mxCell>
        <mxCell id="fEjhOvrRUlLvb5Ld7npS-11" value="&lt;span style=&quot;font-size: 30px;&quot;&gt;&lt;b&gt;削除&lt;/b&gt;&lt;/span&gt;" style="rounded=1;whiteSpace=wrap;html=1;strokeWidth=4;" vertex="1" parent="cFaB45KztUIKXS-_cTrr-14">
          <mxGeometry x="1456" y="1309" width="104" height="50" as="geometry" />
        </mxCell>
        <mxCell id="fEjhOvrRUlLvb5Ld7npS-12" value="&lt;span style=&quot;font-size: 30px;&quot;&gt;&lt;b&gt;削除&lt;/b&gt;&lt;/span&gt;" style="rounded=1;whiteSpace=wrap;html=1;strokeWidth=4;" vertex="1" parent="cFaB45KztUIKXS-_cTrr-14">
          <mxGeometry x="1456" y="1369" width="104" height="50" as="geometry" />
        </mxCell>
        <mxCell id="fEjhOvrRUlLvb5Ld7npS-13" value="&lt;span style=&quot;font-size: 30px;&quot;&gt;&lt;b&gt;削除&lt;/b&gt;&lt;/span&gt;" style="rounded=1;whiteSpace=wrap;html=1;strokeWidth=4;" vertex="1" parent="cFaB45KztUIKXS-_cTrr-14">
          <mxGeometry x="1456" y="1429" width="104" height="50" as="geometry" />
        </mxCell>
      </root>
    </mxGraphModel>
  </diagram>
</mxfile>
